<svg xmlns="http://www.w3.org/2000/svg" xmlns:xlink="http://www.w3.org/1999/xlink" width="600" zoomAndPan="magnify" viewBox="0 0 450 187.499995" height="250" preserveAspectRatio="xMidYMid meet" version="1.0"><defs><g/></defs><g fill="#212786" fill-opacity="1"><g transform="translate(4.335764, 112.453954)"><g><path d="M 6.203125 -35.359375 L 6.203125 -48.515625 L 18.40625 -48.515625 L 18.40625 -35.359375 L 25.84375 -35.359375 L 25.84375 -26.046875 L 18.40625 -26.046875 L 18.40625 -14.8125 C 18.40625 -11.550781 19.320312 -9.921875 21.15625 -9.921875 C 21.613281 -9.921875 22.09375 -10.007812 22.59375 -10.1875 C 23.101562 -10.375 23.5 -10.5625 23.78125 -10.75 L 24.1875 -11.03125 L 27.21875 -1.171875 C 24.601562 0.296875 21.617188 1.03125 18.265625 1.03125 C 15.960938 1.03125 13.984375 0.628906 12.328125 -0.171875 C 10.679688 -0.972656 9.429688 -2.050781 8.578125 -3.40625 C 7.734375 -4.757812 7.125 -6.179688 6.75 -7.671875 C 6.382812 -9.171875 6.203125 -10.769531 6.203125 -12.46875 L 6.203125 -26.046875 L 1.109375 -26.046875 L 1.109375 -35.359375 Z M 6.203125 -35.359375 "/></g></g></g><g fill="#212786" fill-opacity="1"><g transform="translate(28.113562, 112.453954)"><g><path d="M 4.140625 0 L 4.140625 -59.265625 L 16.328125 -59.265625 L 16.328125 -31.640625 L 16.46875 -31.640625 C 19.644531 -34.804688 23.023438 -36.390625 26.609375 -36.390625 C 28.347656 -36.390625 30.078125 -36.160156 31.796875 -35.703125 C 33.523438 -35.242188 35.179688 -34.53125 36.765625 -33.5625 C 38.347656 -32.601562 39.632812 -31.238281 40.625 -29.46875 C 41.613281 -27.695312 42.109375 -25.640625 42.109375 -23.296875 L 42.109375 0 L 29.90625 0 L 29.90625 -19.984375 C 29.90625 -21.828125 29.316406 -23.4375 28.140625 -24.8125 C 26.972656 -26.1875 25.453125 -26.875 23.578125 -26.875 C 21.734375 -26.875 20.0625 -26.160156 18.5625 -24.734375 C 17.070312 -23.316406 16.328125 -21.734375 16.328125 -19.984375 L 16.328125 0 Z M 4.140625 0 "/></g></g></g><g fill="#212786" fill-opacity="1"><g transform="translate(70.224378, 112.453954)"><g><path d="M 15.640625 -35.359375 L 15.640625 -18.546875 C 15.640625 -15.046875 16.164062 -12.5625 17.21875 -11.09375 C 18.28125 -9.625 20.070312 -8.890625 22.59375 -8.890625 C 25.125 -8.890625 26.914062 -9.625 27.96875 -11.09375 C 29.03125 -12.5625 29.5625 -15.046875 29.5625 -18.546875 L 29.5625 -35.359375 L 41.765625 -35.359375 L 41.765625 -15.578125 C 41.765625 -9.691406 40.234375 -5.453125 37.171875 -2.859375 C 34.117188 -0.265625 29.257812 1.03125 22.59375 1.03125 C 15.9375 1.03125 11.082031 -0.265625 8.03125 -2.859375 C 4.976562 -5.453125 3.453125 -9.691406 3.453125 -15.578125 L 3.453125 -35.359375 Z M 15.640625 -35.359375 "/></g></g></g><g fill="#212786" fill-opacity="1"><g transform="translate(111.990591, 112.453954)"><g><path d="M 5.296875 -55.0625 C 6.722656 -56.488281 8.425781 -57.203125 10.40625 -57.203125 C 12.382812 -57.203125 14.082031 -56.488281 15.5 -55.0625 C 16.925781 -53.644531 17.640625 -51.945312 17.640625 -49.96875 C 17.640625 -47.988281 16.925781 -46.285156 15.5 -44.859375 C 14.082031 -43.441406 12.382812 -42.734375 10.40625 -42.734375 C 8.425781 -42.734375 6.722656 -43.441406 5.296875 -44.859375 C 3.878906 -46.285156 3.171875 -47.988281 3.171875 -49.96875 C 3.171875 -51.945312 3.878906 -53.644531 5.296875 -55.0625 Z M 4.140625 -35.359375 L 4.140625 0 L 16.328125 0 L 16.328125 -35.359375 Z M 4.140625 -35.359375 "/></g></g></g><g fill="#212786" fill-opacity="1"><g transform="translate(129.358718, 112.453954)"><g><path d="M 19.5 -36.390625 C 21.519531 -36.390625 23.519531 -36.160156 25.5 -35.703125 C 27.476562 -35.242188 28.945312 -34.785156 29.90625 -34.328125 L 31.359375 -33.640625 L 27.359375 -25.640625 C 24.609375 -27.109375 21.988281 -27.84375 19.5 -27.84375 C 18.125 -27.84375 17.148438 -27.691406 16.578125 -27.390625 C 16.003906 -27.097656 15.71875 -26.535156 15.71875 -25.703125 C 15.71875 -25.523438 15.738281 -25.34375 15.78125 -25.15625 C 15.832031 -24.96875 15.925781 -24.789062 16.0625 -24.625 C 16.195312 -24.46875 16.320312 -24.332031 16.4375 -24.21875 C 16.550781 -24.101562 16.742188 -23.976562 17.015625 -23.84375 C 17.296875 -23.707031 17.515625 -23.601562 17.671875 -23.53125 C 17.835938 -23.46875 18.101562 -23.363281 18.46875 -23.21875 C 18.832031 -23.082031 19.109375 -22.976562 19.296875 -22.90625 C 19.484375 -22.84375 19.796875 -22.742188 20.234375 -22.609375 C 20.671875 -22.472656 21.003906 -22.378906 21.234375 -22.328125 C 22.648438 -21.910156 23.882812 -21.445312 24.9375 -20.9375 C 26 -20.4375 27.113281 -19.75 28.28125 -18.875 C 29.457031 -18.007812 30.367188 -16.910156 31.015625 -15.578125 C 31.660156 -14.242188 31.984375 -12.726562 31.984375 -11.03125 C 31.984375 -2.988281 26.398438 1.03125 15.234375 1.03125 C 12.703125 1.03125 10.300781 0.640625 8.03125 -0.140625 C 5.757812 -0.921875 4.113281 -1.703125 3.09375 -2.484375 L 1.578125 -3.71875 L 6.546875 -12.0625 C 6.910156 -11.738281 7.390625 -11.359375 7.984375 -10.921875 C 8.585938 -10.484375 9.671875 -9.882812 11.234375 -9.125 C 12.796875 -8.375 14.148438 -8 15.296875 -8 C 17.828125 -8 19.09375 -8.847656 19.09375 -10.546875 C 19.09375 -11.328125 18.769531 -11.9375 18.125 -12.375 C 17.476562 -12.8125 16.382812 -13.304688 14.84375 -13.859375 C 13.3125 -14.410156 12.109375 -14.914062 11.234375 -15.375 C 9.023438 -16.519531 7.273438 -17.816406 5.984375 -19.265625 C 4.703125 -20.710938 4.0625 -22.628906 4.0625 -25.015625 C 4.0625 -28.597656 5.453125 -31.390625 8.234375 -33.390625 C 11.015625 -35.390625 14.769531 -36.390625 19.5 -36.390625 Z M 19.5 -36.390625 "/></g></g></g><g fill="#212786" fill-opacity="1"><g transform="translate(159.821862, 112.453954)"><g/></g></g><g fill="#212786" fill-opacity="1"><g transform="translate(175.19128, 112.453954)"><g><path d="M 6.203125 -35.359375 L 6.203125 -48.515625 L 18.40625 -48.515625 L 18.40625 -35.359375 L 25.84375 -35.359375 L 25.84375 -26.046875 L 18.40625 -26.046875 L 18.40625 -14.8125 C 18.40625 -11.550781 19.320312 -9.921875 21.15625 -9.921875 C 21.613281 -9.921875 22.09375 -10.007812 22.59375 -10.1875 C 23.101562 -10.375 23.5 -10.5625 23.78125 -10.75 L 24.1875 -11.03125 L 27.21875 -1.171875 C 24.601562 0.296875 21.617188 1.03125 18.265625 1.03125 C 15.960938 1.03125 13.984375 0.628906 12.328125 -0.171875 C 10.679688 -0.972656 9.429688 -2.050781 8.578125 -3.40625 C 7.734375 -4.757812 7.125 -6.179688 6.75 -7.671875 C 6.382812 -9.171875 6.203125 -10.769531 6.203125 -12.46875 L 6.203125 -26.046875 L 1.109375 -26.046875 L 1.109375 -35.359375 Z M 6.203125 -35.359375 "/></g></g></g><g fill="#212786" fill-opacity="1"><g transform="translate(198.969078, 112.453954)"><g><path d="M 39.90625 -15.984375 L 14.265625 -15.984375 C 14.265625 -13.503906 15.066406 -11.664062 16.671875 -10.46875 C 18.285156 -9.28125 20.035156 -8.6875 21.921875 -8.6875 C 23.890625 -8.6875 25.445312 -8.945312 26.59375 -9.46875 C 27.75 -10 29.0625 -11.046875 30.53125 -12.609375 L 39.359375 -8.203125 C 35.679688 -2.046875 29.566406 1.03125 21.015625 1.03125 C 15.691406 1.03125 11.117188 -0.789062 7.296875 -4.4375 C 3.484375 -8.09375 1.578125 -12.492188 1.578125 -17.640625 C 1.578125 -22.785156 3.484375 -27.195312 7.296875 -30.875 C 11.117188 -34.550781 15.691406 -36.390625 21.015625 -36.390625 C 26.617188 -36.390625 31.175781 -34.769531 34.6875 -31.53125 C 38.207031 -28.289062 39.96875 -23.660156 39.96875 -17.640625 C 39.96875 -16.816406 39.945312 -16.265625 39.90625 -15.984375 Z M 14.609375 -22.75 L 28.046875 -22.75 C 27.773438 -24.582031 27.050781 -25.992188 25.875 -26.984375 C 24.707031 -27.972656 23.203125 -28.46875 21.359375 -28.46875 C 19.335938 -28.46875 17.726562 -27.9375 16.53125 -26.875 C 15.34375 -25.820312 14.703125 -24.445312 14.609375 -22.75 Z M 14.609375 -22.75 "/></g></g></g><g fill="#212786" fill-opacity="1"><g transform="translate(237.082459, 112.453954)"><g/></g></g><g fill="#212786" fill-opacity="1"><g transform="translate(252.451876, 112.453954)"><g><path d="M 44.53125 -35.359375 L 27.703125 -18.46875 L 46.171875 0 L 30.46875 0 L 16.328125 -14.125 L 16.328125 0 L 4.140625 0 L 4.140625 -59.265625 L 16.328125 -59.265625 L 16.328125 -23.015625 L 28.671875 -35.359375 Z M 44.53125 -35.359375 "/></g></g></g><g fill="#212786" fill-opacity="1"><g transform="translate(293.528873, 112.453954)"><g><path d="M 7.46875 -4.203125 C 3.539062 -7.691406 1.578125 -12.171875 1.578125 -17.640625 C 1.578125 -23.109375 3.625 -27.597656 7.71875 -31.109375 C 11.8125 -34.628906 16.863281 -36.390625 22.875 -36.390625 C 28.800781 -36.390625 33.796875 -34.617188 37.859375 -31.078125 C 41.929688 -27.546875 43.96875 -23.066406 43.96875 -17.640625 C 43.96875 -12.222656 41.976562 -7.753906 38 -4.234375 C 34.03125 -0.722656 28.988281 1.03125 22.875 1.03125 C 16.539062 1.03125 11.40625 -0.710938 7.46875 -4.203125 Z M 16.921875 -23.640625 C 15.335938 -22.078125 14.546875 -20.078125 14.546875 -17.640625 C 14.546875 -15.203125 15.300781 -13.210938 16.8125 -11.671875 C 18.332031 -10.140625 20.332031 -9.375 22.8125 -9.375 C 25.195312 -9.375 27.160156 -10.15625 28.703125 -11.71875 C 30.242188 -13.28125 31.015625 -15.253906 31.015625 -17.640625 C 31.015625 -20.078125 30.222656 -22.078125 28.640625 -23.640625 C 27.054688 -25.203125 25.113281 -25.984375 22.8125 -25.984375 C 20.46875 -25.984375 18.503906 -25.203125 16.921875 -23.640625 Z M 16.921875 -23.640625 "/></g></g></g><g fill="#212786" fill-opacity="1"><g transform="translate(335.639704, 112.453954)"><g><path d="M 7.46875 -4.203125 C 3.539062 -7.691406 1.578125 -12.171875 1.578125 -17.640625 C 1.578125 -23.109375 3.625 -27.597656 7.71875 -31.109375 C 11.8125 -34.628906 16.863281 -36.390625 22.875 -36.390625 C 28.800781 -36.390625 33.796875 -34.617188 37.859375 -31.078125 C 41.929688 -27.546875 43.96875 -23.066406 43.96875 -17.640625 C 43.96875 -12.222656 41.976562 -7.753906 38 -4.234375 C 34.03125 -0.722656 28.988281 1.03125 22.875 1.03125 C 16.539062 1.03125 11.40625 -0.710938 7.46875 -4.203125 Z M 16.921875 -23.640625 C 15.335938 -22.078125 14.546875 -20.078125 14.546875 -17.640625 C 14.546875 -15.203125 15.300781 -13.210938 16.8125 -11.671875 C 18.332031 -10.140625 20.332031 -9.375 22.8125 -9.375 C 25.195312 -9.375 27.160156 -10.15625 28.703125 -11.71875 C 30.242188 -13.28125 31.015625 -15.253906 31.015625 -17.640625 C 31.015625 -20.078125 30.222656 -22.078125 28.640625 -23.640625 C 27.054688 -25.203125 25.113281 -25.984375 22.8125 -25.984375 C 20.46875 -25.984375 18.503906 -25.203125 16.921875 -23.640625 Z M 16.921875 -23.640625 "/></g></g></g><g fill="#212786" fill-opacity="1"><g transform="translate(377.750506, 112.453954)"><g><path d="M 40.515625 -30.96875 C 43.828125 -27.363281 45.484375 -22.941406 45.484375 -17.703125 C 45.484375 -12.472656 43.828125 -8.039062 40.515625 -4.40625 C 37.210938 -0.78125 33.007812 1.03125 27.90625 1.03125 C 23.226562 1.03125 19.367188 -0.4375 16.328125 -3.375 L 16.328125 17.921875 L 4.140625 17.921875 L 4.140625 -35.359375 L 16.203125 -35.359375 L 16.203125 -31.359375 L 16.328125 -31.359375 C 19.367188 -34.710938 23.226562 -36.390625 27.90625 -36.390625 C 33.007812 -36.390625 37.210938 -34.582031 40.515625 -30.96875 Z M 30.15625 -11.71875 C 31.738281 -13.28125 32.53125 -15.273438 32.53125 -17.703125 C 32.53125 -20.140625 31.769531 -22.128906 30.25 -23.671875 C 28.738281 -25.210938 26.742188 -25.984375 24.265625 -25.984375 C 21.867188 -25.984375 19.898438 -25.203125 18.359375 -23.640625 C 16.828125 -22.078125 16.0625 -20.101562 16.0625 -17.71875 C 16.0625 -15.28125 16.851562 -13.28125 18.4375 -11.71875 C 20.019531 -10.15625 21.960938 -9.375 24.265625 -9.375 C 26.609375 -9.375 28.570312 -10.15625 30.15625 -11.71875 Z M 30.15625 -11.71875 "/></g></g></g><g fill="#212786" fill-opacity="1"><g transform="translate(421.377579, 112.453954)"><g><path d="M 12 -14.75 C 14.195312 -14.75 16.066406 -13.976562 17.609375 -12.4375 C 19.148438 -10.894531 19.921875 -9.023438 19.921875 -6.828125 C 19.921875 -4.660156 19.148438 -2.804688 17.609375 -1.265625 C 16.066406 0.265625 14.195312 1.03125 12 1.03125 C 9.832031 1.03125 7.976562 0.265625 6.4375 -1.265625 C 4.90625 -2.804688 4.140625 -4.660156 4.140625 -6.828125 C 4.140625 -9.023438 4.90625 -10.894531 6.4375 -12.4375 C 7.976562 -13.976562 9.832031 -14.75 12 -14.75 Z M 12 -14.75 "/></g></g></g></svg>